<svg width="454" height="103" fill="none" xmlns="http://www.w3.org/2000/svg"><rect width="454" height="103" rx="6" fill="#363636"/><path d="M155.322 72V34.95h9.804v28.842h14.022V72h-23.826zm45.841.684c-10.26 0-17.214-7.182-17.214-19.38 0-12.198 6.954-19.038 17.214-19.038 10.26 0 17.214 6.897 17.214 19.038 0 12.198-6.954 19.38-17.214 19.38zm0-8.436c4.446 0 7.182-4.218 7.182-10.944 0-6.726-2.736-10.602-7.182-10.602s-7.182 3.876-7.182 10.602c0 6.726 2.736 10.944 7.182 10.944zm43.228 8.436c-10.374 0-18.696-6.27-18.696-18.924 0-12.426 8.55-19.494 18.468-19.494 5.472 0 9.462 2.28 12.084 4.902l-5.13 6.27c-1.824-1.596-3.648-2.736-6.612-2.736-5.016 0-8.778 3.99-8.778 10.716 0 6.954 3.078 10.83 9.69 10.83 1.026 0 2.166-.228 2.85-.684v-5.13h-5.472v-7.98h14.136v17.67c-2.622 2.508-7.296 4.56-12.54 4.56zm37.648 0c-10.26 0-17.214-7.182-17.214-19.38 0-12.198 6.954-19.038 17.214-19.038 10.26 0 17.214 6.897 17.214 19.038 0 12.198-6.954 19.38-17.214 19.38zm0-8.436c4.446 0 7.182-4.218 7.182-10.944 0-6.726-2.736-10.602-7.182-10.602s-7.182 3.876-7.182 10.602c0 6.726 2.736 10.944 7.182 10.944z" fill="#fff"/></svg>