<svg width="178" height="61" fill="none" xmlns="http://www.w3.org/2000/svg"><rect width="178" height="61" rx="3" fill="#fff"/><path d="M47.003 42.64V20.699h5.745V37.78h8.215v4.86h-13.96zm26.859.406c-6.011 0-10.086-4.254-10.086-11.478s4.075-11.274 10.086-11.274 10.086 4.084 10.086 11.274c0 7.224-4.075 11.478-10.086 11.478zm0-4.996c2.605 0 4.208-2.498 4.208-6.482 0-3.983-1.603-6.279-4.208-6.279-2.605 0-4.208 2.296-4.208 6.28 0 3.983 1.603 6.48 4.208 6.48zm25.328 4.996c-6.079 0-10.955-3.713-10.955-11.208 0-7.359 5.01-11.544 10.82-11.544 3.207 0 5.545 1.35 7.081 2.903l-3.006 3.713c-1.069-.945-2.137-1.62-3.874-1.62-2.939 0-5.143 2.363-5.143 6.346 0 4.118 1.803 6.414 5.677 6.414.602 0 1.27-.135 1.67-.405v-3.039h-3.206V29.88h8.283v10.465c-1.537 1.486-4.275 2.7-7.348 2.7zm22.057 0c-6.011 0-10.086-4.254-10.086-11.478s4.075-11.274 10.086-11.274c6.012 0 10.086 4.084 10.086 11.274 0 7.224-4.074 11.478-10.086 11.478zm0-4.996c2.605 0 4.208-2.498 4.208-6.482 0-3.983-1.603-6.279-4.208-6.279-2.605 0-4.208 2.296-4.208 6.28 0 3.983 1.603 6.48 4.208 6.48z" fill="#3B4BDC"/></svg>