<svg width="28" height="29" viewBox="0 0 28 29" fill="none" xmlns="http://www.w3.org/2000/svg">
<path d="M24.1818 0.5H3.81818C2.80554 0.5 1.83437 0.902272 1.11832 1.61832C0.402272 2.33437 0 3.30554 0 4.31818L0 24.6818C0 25.6945 0.402272 26.6656 1.11832 27.3817C1.83437 28.0977 2.80554 28.5 3.81818 28.5H24.1818C25.1945 28.5 26.1656 28.0977 26.8817 27.3817C27.5977 26.6656 28 25.6945 28 24.6818V4.31818C28 3.30554 27.5977 2.33437 26.8817 1.61832C26.1656 0.902272 25.1945 0.5 24.1818 0.5V0.5ZM9.54545 22.6582C9.54566 22.7358 9.53055 22.8127 9.50098 22.8845C9.47142 22.9563 9.42797 23.0216 9.37314 23.0766C9.31832 23.1315 9.25318 23.1752 9.18147 23.2049C9.10975 23.2347 9.03287 23.25 8.95523 23.25H6.44C6.36222 23.2502 6.28517 23.235 6.21327 23.2054C6.14138 23.1757 6.07605 23.1321 6.02105 23.0771C5.96606 23.0221 5.92247 22.9568 5.8928 22.8849C5.86314 22.813 5.84797 22.736 5.84818 22.6582V12.1136C5.84818 11.9567 5.91053 11.8061 6.02152 11.6952C6.13251 11.5842 6.28304 11.5218 6.44 11.5218H8.95523C9.11191 11.5222 9.26203 11.5848 9.37268 11.6957C9.48332 11.8067 9.54545 11.957 9.54545 12.1136V22.6582ZM7.69682 10.5227C7.22484 10.5227 6.76346 10.3828 6.37103 10.1206C5.97859 9.85834 5.67272 9.48564 5.49211 9.04959C5.31149 8.61353 5.26423 8.13372 5.35631 7.67081C5.44839 7.2079 5.67567 6.78269 6.0094 6.44895C6.34314 6.11521 6.76835 5.88793 7.23126 5.79585C7.69417 5.70377 8.17399 5.75103 8.61004 5.93165C9.04609 6.11227 9.41879 6.41814 9.68101 6.81057C9.94322 7.20301 10.0832 7.66439 10.0832 8.13636C10.0832 8.76927 9.83176 9.37625 9.38423 9.82378C8.9367 10.2713 8.32972 10.5227 7.69682 10.5227ZM22.6927 22.6995C22.6929 22.7711 22.679 22.8419 22.6517 22.908C22.6245 22.9741 22.5844 23.0342 22.5338 23.0847C22.4833 23.1353 22.4232 23.1754 22.3571 23.2026C22.291 23.2299 22.2201 23.2438 22.1486 23.2436H19.4441C19.3726 23.2438 19.3017 23.2299 19.2356 23.2026C19.1695 23.1754 19.1095 23.1353 19.0589 23.0847C19.0083 23.0342 18.9683 22.9741 18.941 22.908C18.9137 22.8419 18.8998 22.7711 18.9 22.6995V17.7598C18.9 17.0216 19.1164 14.527 16.9702 14.527C15.3077 14.527 14.9689 16.2341 14.902 17.0009V22.7059C14.9021 22.8488 14.8458 22.986 14.7455 23.0879C14.6452 23.1897 14.5088 23.2479 14.3659 23.25H11.7536C11.6823 23.25 11.6116 23.2359 11.5457 23.2086C11.4797 23.1812 11.4199 23.1411 11.3695 23.0905C11.3191 23.04 11.2791 22.98 11.252 22.914C11.2248 22.848 11.2109 22.7773 11.2111 22.7059V12.0675C11.2109 11.9961 11.2248 11.9254 11.252 11.8594C11.2791 11.7934 11.3191 11.7334 11.3695 11.6829C11.4199 11.6323 11.4797 11.5922 11.5457 11.5649C11.6116 11.5375 11.6823 11.5234 11.7536 11.5234H14.3659C14.5102 11.5234 14.6486 11.5807 14.7506 11.6828C14.8527 11.7848 14.91 11.9232 14.91 12.0675V12.987C15.5273 12.0595 16.442 11.3468 18.3941 11.3468C22.7182 11.3468 22.6895 15.3845 22.6895 17.6023L22.6927 22.6995Z" fill="#222222"/>
</svg>
