<svg width="454" height="103" viewBox="0 0 454 103" fill="none" xmlns="http://www.w3.org/2000/svg">
<rect width="454" height="103" rx="6" fill="#363636"/>
<path d="M155.322 72.0001V34.9501H165.126V63.7921H179.148V72.0001H155.322Z" fill="white"/>
<path d="M201.163 72.6841C190.903 72.6841 183.949 65.5021 183.949 53.3041C183.949 41.1061 190.903 34.2661 201.163 34.2661C211.423 34.2661 218.377 41.1631 218.377 53.3041C218.377 65.5021 211.423 72.6841 201.163 72.6841ZM201.163 64.2481C205.609 64.2481 208.345 60.0301 208.345 53.3041C208.345 46.5781 205.609 42.7021 201.163 42.7021C196.717 42.7021 193.981 46.5781 193.981 53.3041C193.981 60.0301 196.717 64.2481 201.163 64.2481Z" fill="white"/>
<path d="M244.391 72.6841C234.017 72.6841 225.695 66.4141 225.695 53.7601C225.695 41.3341 234.245 34.2661 244.163 34.2661C249.635 34.2661 253.625 36.5461 256.247 39.1681L251.117 45.4381C249.293 43.8421 247.469 42.7021 244.505 42.7021C239.489 42.7021 235.727 46.6921 235.727 53.4181C235.727 60.3721 238.805 64.2481 245.417 64.2481C246.443 64.2481 247.583 64.0201 248.267 63.5641V58.4341H242.795V50.4541H256.931V68.1241C254.309 70.6321 249.635 72.6841 244.391 72.6841Z" fill="white"/>
<path d="M282.039 72.6841C271.779 72.6841 264.825 65.5021 264.825 53.3041C264.825 41.1061 271.779 34.2661 282.039 34.2661C292.299 34.2661 299.253 41.1631 299.253 53.3041C299.253 65.5021 292.299 72.6841 282.039 72.6841ZM282.039 64.2481C286.485 64.2481 289.221 60.0301 289.221 53.3041C289.221 46.5781 286.485 42.7021 282.039 42.7021C277.593 42.7021 274.857 46.5781 274.857 53.3041C274.857 60.0301 277.593 64.2481 282.039 64.2481Z" fill="white"/>
</svg>
