<svg width="28" height="29" viewBox="0 0 28 29" fill="none" xmlns="http://www.w3.org/2000/svg">
<path d="M24.4364 0.5H3.56364C2.6185 0.5 1.71208 0.875453 1.04376 1.54376C0.375453 2.21208 0 3.1185 0 4.06364V24.9364C0 25.8815 0.375453 26.7879 1.04376 27.4562C1.71208 28.1245 2.6185 28.5 3.56364 28.5H13.7881V16.8497H11.458V12.1896H13.7688V10.0836C13.7688 8.1776 14.6768 5.1998 18.6726 5.1998L22.2722 5.21425V9.20685H19.6581C19.2331 9.20685 18.6283 9.41851 18.6283 10.3263V12.1899H22.3316L21.9065 16.85H18.4482V28.5H24.4364C24.9043 28.5 25.3677 28.4078 25.8001 28.2287C26.2325 28.0496 26.6253 27.7871 26.9562 27.4562C27.2871 27.1253 27.5496 26.7325 27.7287 26.3001C27.9078 25.8677 28 25.4043 28 24.9364V4.06364C28 3.59565 27.9078 3.13225 27.7287 2.69989C27.5496 2.26753 27.2871 1.87468 26.9562 1.54376C26.6253 1.21285 26.2325 0.950355 25.8001 0.771266C25.3677 0.592176 24.9043 0.5 24.4364 0.5Z" fill="#222222"/>
</svg>
